<?xml version="1.0" encoding="UTF-8"?>
<svg xmlns="http://www.w3.org/2000/svg" xmlns:xlink="http://www.w3.org/1999/xlink" width="1080" height="1080" viewBox="0 0 1080 1080">
<defs>
<linearGradient id="linear-pattern-0" gradientUnits="userSpaceOnUse" x1="-0.00000000240464" y1="0" x2="1" y2="0" gradientTransform="matrix(1232.124878, -862.743164, 862.743164, 1232.124878, -76.062447, 971.371567)">
<stop offset="0" stop-color="rgb(26.274109%, 7.058716%, 35.68573%)" stop-opacity="1"/>
<stop offset="0.125" stop-color="rgb(26.274109%, 7.058716%, 35.68573%)" stop-opacity="1"/>
<stop offset="0.15625" stop-color="rgb(26.274109%, 7.058716%, 35.68573%)" stop-opacity="1"/>
<stop offset="0.164062" stop-color="rgb(26.66626%, 7.450867%, 35.68573%)" stop-opacity="1"/>
<stop offset="0.171875" stop-color="rgb(26.66626%, 7.843018%, 36.077881%)" stop-opacity="1"/>
<stop offset="0.179688" stop-color="rgb(27.058411%, 8.627319%, 36.077881%)" stop-opacity="1"/>
<stop offset="0.1875" stop-color="rgb(27.450562%, 9.01947%, 36.470032%)" stop-opacity="1"/>
<stop offset="0.195312" stop-color="rgb(27.450562%, 9.01947%, 36.470032%)" stop-opacity="1"/>
<stop offset="0.203125" stop-color="rgb(27.842712%, 9.411621%, 36.862183%)" stop-opacity="1"/>
<stop offset="0.210937" stop-color="rgb(28.234863%, 9.803772%, 36.862183%)" stop-opacity="1"/>
<stop offset="0.21875" stop-color="rgb(28.234863%, 10.195923%, 36.862183%)" stop-opacity="1"/>
<stop offset="0.226562" stop-color="rgb(28.627014%, 10.588074%, 37.254333%)" stop-opacity="1"/>
<stop offset="0.234375" stop-color="rgb(29.019165%, 10.980225%, 37.254333%)" stop-opacity="1"/>
<stop offset="0.242188" stop-color="rgb(29.019165%, 11.764526%, 38.038635%)" stop-opacity="1"/>
<stop offset="0.25" stop-color="rgb(29.803467%, 11.764526%, 38.038635%)" stop-opacity="1"/>
<stop offset="0.257812" stop-color="rgb(29.411316%, 12.156677%, 38.430786%)" stop-opacity="1"/>
<stop offset="0.265625" stop-color="rgb(29.803467%, 12.548828%, 38.430786%)" stop-opacity="1"/>
<stop offset="0.273437" stop-color="rgb(30.587769%, 12.940979%, 38.822937%)" stop-opacity="1"/>
<stop offset="0.28125" stop-color="rgb(30.195618%, 13.33313%, 38.822937%)" stop-opacity="1"/>
<stop offset="0.289062" stop-color="rgb(30.979919%, 13.725281%, 38.822937%)" stop-opacity="1"/>
<stop offset="0.296875" stop-color="rgb(31.37207%, 14.117432%, 39.215088%)" stop-opacity="1"/>
<stop offset="0.304688" stop-color="rgb(30.979919%, 14.901733%, 39.215088%)" stop-opacity="1"/>
<stop offset="0.3125" stop-color="rgb(31.764221%, 14.901733%, 39.607239%)" stop-opacity="1"/>
<stop offset="0.320312" stop-color="rgb(32.156372%, 15.293884%, 39.607239%)" stop-opacity="1"/>
<stop offset="0.328125" stop-color="rgb(32.156372%, 15.686035%, 39.99939%)" stop-opacity="1"/>
<stop offset="0.335937" stop-color="rgb(32.548523%, 15.686035%, 39.99939%)" stop-opacity="1"/>
<stop offset="0.339844" stop-color="rgb(32.156372%, 15.686035%, 39.607239%)" stop-opacity="1"/>
<stop offset="0.34375" stop-color="rgb(31.764221%, 15.293884%, 39.607239%)" stop-opacity="1"/>
<stop offset="0.347656" stop-color="rgb(31.764221%, 14.901733%, 39.607239%)" stop-opacity="1"/>
<stop offset="0.351562" stop-color="rgb(31.37207%, 14.117432%, 39.215088%)" stop-opacity="1"/>
<stop offset="0.355469" stop-color="rgb(31.37207%, 14.117432%, 39.215088%)" stop-opacity="1"/>
<stop offset="0.359375" stop-color="rgb(30.979919%, 13.725281%, 39.215088%)" stop-opacity="1"/>
<stop offset="0.363281" stop-color="rgb(30.979919%, 13.33313%, 38.822937%)" stop-opacity="1"/>
<stop offset="0.367187" stop-color="rgb(30.587769%, 12.940979%, 38.822937%)" stop-opacity="1"/>
<stop offset="0.371094" stop-color="rgb(30.587769%, 12.940979%, 38.822937%)" stop-opacity="1"/>
<stop offset="0.375" stop-color="rgb(29.803467%, 12.548828%, 38.430786%)" stop-opacity="1"/>
<stop offset="0.378906" stop-color="rgb(30.195618%, 12.156677%, 38.430786%)" stop-opacity="1"/>
<stop offset="0.382812" stop-color="rgb(29.803467%, 11.764526%, 38.430786%)" stop-opacity="1"/>
<stop offset="0.386719" stop-color="rgb(29.803467%, 11.764526%, 38.038635%)" stop-opacity="1"/>
<stop offset="0.390625" stop-color="rgb(29.019165%, 10.980225%, 38.038635%)" stop-opacity="1"/>
<stop offset="0.394531" stop-color="rgb(28.627014%, 10.588074%, 38.038635%)" stop-opacity="1"/>
<stop offset="0.398438" stop-color="rgb(28.627014%, 10.195923%, 37.646484%)" stop-opacity="1"/>
<stop offset="0.402344" stop-color="rgb(28.234863%, 10.195923%, 37.646484%)" stop-opacity="1"/>
<stop offset="0.40625" stop-color="rgb(28.234863%, 9.803772%, 37.646484%)" stop-opacity="1"/>
<stop offset="0.410156" stop-color="rgb(27.842712%, 9.411621%, 36.862183%)" stop-opacity="1"/>
<stop offset="0.414062" stop-color="rgb(27.842712%, 9.01947%, 36.862183%)" stop-opacity="1"/>
<stop offset="0.417969" stop-color="rgb(27.450562%, 9.01947%, 36.862183%)" stop-opacity="1"/>
<stop offset="0.421875" stop-color="rgb(27.450562%, 8.627319%, 36.470032%)" stop-opacity="1"/>
<stop offset="0.425781" stop-color="rgb(27.058411%, 7.843018%, 36.470032%)" stop-opacity="1"/>
<stop offset="0.429688" stop-color="rgb(27.058411%, 7.843018%, 36.470032%)" stop-opacity="1"/>
<stop offset="0.4375" stop-color="rgb(27.058411%, 7.843018%, 36.470032%)" stop-opacity="1"/>
<stop offset="0.5" stop-color="rgb(26.66626%, 7.450867%, 36.077881%)" stop-opacity="1"/>
<stop offset="0.5625" stop-color="rgb(26.66626%, 7.450867%, 36.077881%)" stop-opacity="1"/>
<stop offset="0.566406" stop-color="rgb(26.66626%, 7.450867%, 35.68573%)" stop-opacity="1"/>
<stop offset="0.570312" stop-color="rgb(26.66626%, 7.450867%, 36.077881%)" stop-opacity="1"/>
<stop offset="0.574219" stop-color="rgb(27.058411%, 7.843018%, 36.077881%)" stop-opacity="1"/>
<stop offset="0.578125" stop-color="rgb(27.058411%, 8.627319%, 36.077881%)" stop-opacity="1"/>
<stop offset="0.582031" stop-color="rgb(27.058411%, 8.627319%, 36.470032%)" stop-opacity="1"/>
<stop offset="0.585937" stop-color="rgb(27.450562%, 9.01947%, 36.470032%)" stop-opacity="1"/>
<stop offset="0.589844" stop-color="rgb(27.450562%, 9.01947%, 36.470032%)" stop-opacity="1"/>
<stop offset="0.59375" stop-color="rgb(27.842712%, 9.411621%, 36.470032%)" stop-opacity="1"/>
<stop offset="0.597656" stop-color="rgb(27.842712%, 9.411621%, 36.862183%)" stop-opacity="1"/>
<stop offset="0.601562" stop-color="rgb(27.842712%, 9.803772%, 36.862183%)" stop-opacity="1"/>
<stop offset="0.605469" stop-color="rgb(28.234863%, 10.195923%, 36.862183%)" stop-opacity="1"/>
<stop offset="0.609375" stop-color="rgb(28.234863%, 10.195923%, 37.646484%)" stop-opacity="1"/>
<stop offset="0.613281" stop-color="rgb(28.627014%, 10.588074%, 37.254333%)" stop-opacity="1"/>
<stop offset="0.617187" stop-color="rgb(28.627014%, 10.588074%, 37.254333%)" stop-opacity="1"/>
<stop offset="0.621094" stop-color="rgb(29.019165%, 10.980225%, 37.254333%)" stop-opacity="1"/>
<stop offset="0.625" stop-color="rgb(29.019165%, 10.980225%, 38.038635%)" stop-opacity="1"/>
<stop offset="0.628906" stop-color="rgb(29.019165%, 11.764526%, 38.038635%)" stop-opacity="1"/>
<stop offset="0.632812" stop-color="rgb(29.803467%, 11.764526%, 38.038635%)" stop-opacity="1"/>
<stop offset="0.636719" stop-color="rgb(29.411316%, 12.156677%, 38.038635%)" stop-opacity="1"/>
<stop offset="0.640625" stop-color="rgb(29.803467%, 12.548828%, 38.430786%)" stop-opacity="1"/>
<stop offset="0.644531" stop-color="rgb(29.803467%, 12.548828%, 38.430786%)" stop-opacity="1"/>
<stop offset="0.648437" stop-color="rgb(30.587769%, 12.940979%, 38.430786%)" stop-opacity="1"/>
<stop offset="0.652344" stop-color="rgb(30.587769%, 12.940979%, 38.822937%)" stop-opacity="1"/>
<stop offset="0.65625" stop-color="rgb(30.195618%, 13.33313%, 38.822937%)" stop-opacity="1"/>
<stop offset="0.660156" stop-color="rgb(30.979919%, 13.33313%, 38.822937%)" stop-opacity="1"/>
<stop offset="0.664062" stop-color="rgb(30.979919%, 13.725281%, 38.822937%)" stop-opacity="1"/>
<stop offset="0.667969" stop-color="rgb(31.37207%, 13.725281%, 39.215088%)" stop-opacity="1"/>
<stop offset="0.671875" stop-color="rgb(31.37207%, 14.117432%, 39.215088%)" stop-opacity="1"/>
<stop offset="0.675781" stop-color="rgb(30.979919%, 14.901733%, 39.215088%)" stop-opacity="1"/>
<stop offset="0.679687" stop-color="rgb(31.764221%, 14.901733%, 39.607239%)" stop-opacity="1"/>
<stop offset="0.683594" stop-color="rgb(31.764221%, 15.293884%, 39.607239%)" stop-opacity="1"/>
<stop offset="0.6875" stop-color="rgb(32.156372%, 15.293884%, 39.607239%)" stop-opacity="1"/>
<stop offset="0.691406" stop-color="rgb(32.156372%, 15.686035%, 39.607239%)" stop-opacity="1"/>
<stop offset="0.695312" stop-color="rgb(32.548523%, 15.686035%, 39.99939%)" stop-opacity="1"/>
<stop offset="0.703125" stop-color="rgb(32.548523%, 16.078186%, 39.99939%)" stop-opacity="1"/>
<stop offset="0.710937" stop-color="rgb(32.156372%, 15.686035%, 39.99939%)" stop-opacity="1"/>
<stop offset="0.71875" stop-color="rgb(32.156372%, 15.686035%, 39.607239%)" stop-opacity="1"/>
<stop offset="0.726562" stop-color="rgb(31.764221%, 15.293884%, 39.607239%)" stop-opacity="1"/>
<stop offset="0.734375" stop-color="rgb(31.764221%, 14.901733%, 39.607239%)" stop-opacity="1"/>
<stop offset="0.742187" stop-color="rgb(31.37207%, 14.117432%, 39.215088%)" stop-opacity="1"/>
<stop offset="0.75" stop-color="rgb(31.37207%, 14.117432%, 39.215088%)" stop-opacity="1"/>
<stop offset="0.757812" stop-color="rgb(30.979919%, 13.725281%, 38.822937%)" stop-opacity="1"/>
<stop offset="0.765625" stop-color="rgb(30.979919%, 13.33313%, 38.822937%)" stop-opacity="1"/>
<stop offset="0.773438" stop-color="rgb(30.587769%, 12.940979%, 38.822937%)" stop-opacity="1"/>
<stop offset="0.78125" stop-color="rgb(29.803467%, 12.940979%, 38.430786%)" stop-opacity="1"/>
<stop offset="0.789062" stop-color="rgb(29.803467%, 12.548828%, 38.430786%)" stop-opacity="1"/>
<stop offset="0.796875" stop-color="rgb(29.411316%, 12.156677%, 38.430786%)" stop-opacity="1"/>
<stop offset="0.804688" stop-color="rgb(29.803467%, 11.764526%, 38.038635%)" stop-opacity="1"/>
<stop offset="0.8125" stop-color="rgb(29.019165%, 11.764526%, 38.038635%)" stop-opacity="1"/>
<stop offset="0.820312" stop-color="rgb(29.019165%, 10.980225%, 37.254333%)" stop-opacity="1"/>
<stop offset="0.828125" stop-color="rgb(28.627014%, 10.588074%, 37.254333%)" stop-opacity="1"/>
<stop offset="0.835938" stop-color="rgb(28.627014%, 10.195923%, 37.646484%)" stop-opacity="1"/>
<stop offset="0.84375" stop-color="rgb(28.234863%, 10.195923%, 36.862183%)" stop-opacity="1"/>
<stop offset="0.851562" stop-color="rgb(28.234863%, 9.803772%, 36.862183%)" stop-opacity="1"/>
<stop offset="0.859375" stop-color="rgb(27.842712%, 9.411621%, 36.862183%)" stop-opacity="1"/>
<stop offset="0.867188" stop-color="rgb(27.450562%, 9.411621%, 36.470032%)" stop-opacity="1"/>
<stop offset="0.875" stop-color="rgb(27.450562%, 9.01947%, 36.470032%)" stop-opacity="1"/>
<stop offset="0.882812" stop-color="rgb(27.058411%, 8.627319%, 36.470032%)" stop-opacity="1"/>
<stop offset="0.890625" stop-color="rgb(27.058411%, 7.843018%, 36.077881%)" stop-opacity="1"/>
<stop offset="0.898437" stop-color="rgb(26.66626%, 7.843018%, 36.077881%)" stop-opacity="1"/>
<stop offset="0.90625" stop-color="rgb(26.66626%, 7.450867%, 35.68573%)" stop-opacity="1"/>
<stop offset="0.9375" stop-color="rgb(26.274109%, 7.058716%, 35.68573%)" stop-opacity="1"/>
<stop offset="1" stop-color="rgb(26.274109%, 7.058716%, 35.68573%)" stop-opacity="1"/>
</linearGradient>
</defs>

<path fill-rule="nonzero" fill="rgb(100%, 100%, 100%)" fill-opacity="1" d="M 621.070312 481.8125 C 621.070312 455.953125 602.960938 439.820312 575.367188 439.820312 L 571.597656 439.820312 C 557.621094 439.820312 554.824219 444.460938 554.824219 453.078125 L 554.824219 521.925781 C 554.824219 526.234375 557.011719 526.566406 560.414062 526.566406 L 577.191406 526.566406 C 602.960938 526.566406 621.070312 509.328125 621.070312 481.8125 M 531.605469 582.59375 C 531.605469 582.261719 531.847656 582.042969 532.210938 582.042969 L 533.304688 582.042969 C 540.964844 582.042969 543.519531 577.511719 543.519531 568.671875 L 543.519531 453.632812 C 543.519531 444.792969 540.964844 440.371094 533.304688 440.371094 L 532.210938 440.371094 C 531.847656 440.371094 531.605469 440.152344 531.605469 439.820312 C 531.605469 439.488281 531.847656 439.265625 532.210938 439.265625 L 548.988281 439.265625 C 555.675781 439.265625 567.953125 438.714844 574.273438 438.714844 C 606 438.714844 633.714844 449.433594 633.714844 480.816406 C 633.714844 505.679688 616.574219 520.929688 594.574219 525.90625 L 638.332031 569.777344 C 645.140625 576.515625 651.339844 582.042969 656.078125 582.042969 L 656.445312 582.042969 C 656.808594 582.042969 657.050781 582.261719 657.050781 582.59375 C 657.050781 582.925781 656.808594 583.148438 656.445312 583.148438 L 635.660156 583.148438 C 635.414062 583.148438 634.808594 582.816406 634.808594 582.816406 L 581.445312 527.5625 C 580.226562 527.671875 579.257812 527.671875 578.164062 527.671875 L 560.292969 527.671875 C 557.011719 527.671875 554.824219 527.894531 554.824219 531.984375 L 554.824219 568.671875 C 554.824219 577.511719 557.375 582.042969 564.667969 582.042969 L 565.761719 582.042969 C 566.128906 582.042969 566.371094 582.261719 566.371094 582.59375 C 566.371094 582.925781 566.128906 583.148438 565.761719 583.148438 L 532.210938 583.148438 C 531.847656 583.148438 531.605469 582.925781 531.605469 582.59375 "/>
<path fill-rule="nonzero" fill="rgb(100%, 100%, 100%)" fill-opacity="1" d="M 655.285156 543.144531 C 655.285156 525.792969 667.316406 511.316406 680.445312 511.316406 C 686.402344 511.316406 689.683594 514.523438 689.683594 518.5 C 689.683594 523.914062 684.945312 525.902344 679.59375 527.007812 C 666.347656 529.332031 659.902344 535.851562 659.902344 549.109375 C 659.902344 568.117188 677.648438 583.257812 701.109375 583.257812 C 726.394531 583.257812 744.261719 566.128906 744.261719 545.132812 C 744.261719 523.804688 732.109375 514.742188 711.929688 502.699219 C 687.375 488.222656 674.976562 478.609375 674.976562 462.472656 C 674.976562 449.542969 685.308594 437.71875 703.300781 437.71875 C 716.914062 437.71875 724.085938 444.019531 730.042969 444.019531 C 733.929688 444.019531 735.390625 442.027344 735.390625 437.386719 C 735.390625 434.515625 735.269531 432.855469 735.144531 430.316406 C 735.144531 429.984375 735.269531 429.761719 735.753906 429.761719 C 736.117188 429.761719 736.363281 429.875 736.363281 430.316406 L 738.792969 472.199219 C 738.792969 472.640625 738.550781 472.75 738.183594 472.75 C 737.820312 472.75 737.699219 472.640625 737.578125 472.308594 C 731.863281 453.964844 719.222656 438.824219 703.175781 438.824219 C 691.992188 438.824219 683.972656 446.449219 683.972656 457.390625 C 683.972656 471.535156 694.304688 479.824219 718.859375 494.300781 C 737.089844 504.796875 754.59375 516.621094 754.59375 539.828125 C 754.59375 564.472656 734.660156 584.691406 703.300781 584.691406 C 674.246094 584.691406 655.285156 566.019531 655.285156 543.144531 "/>
<path fill-rule="nonzero" fill="rgb(100%, 100%, 100%)" fill-opacity="1" d="M 777.140625 582.59375 C 777.140625 582.261719 777.386719 582.039062 777.75 582.039062 L 778.84375 582.039062 C 786.503906 582.039062 789.054688 577.511719 789.054688 568.667969 L 789.054688 453.632812 C 789.054688 444.792969 786.503906 440.371094 778.84375 440.371094 L 777.75 440.371094 C 777.386719 440.371094 777.140625 440.148438 777.140625 439.820312 C 777.140625 439.488281 777.386719 439.265625 777.75 439.265625 L 811.785156 439.265625 C 812.152344 439.265625 812.394531 439.488281 812.394531 439.820312 C 812.394531 440.148438 812.152344 440.371094 811.785156 440.371094 L 810.570312 440.371094 C 802.914062 440.371094 800.359375 444.792969 800.359375 453.632812 L 800.359375 568.667969 C 800.359375 577.511719 802.914062 582.039062 810.570312 582.039062 L 811.785156 582.039062 C 812.152344 582.039062 812.394531 582.261719 812.394531 582.59375 C 812.394531 582.925781 812.152344 583.148438 811.785156 583.148438 L 777.75 583.148438 C 777.386719 583.148438 777.140625 582.925781 777.140625 582.59375 "/>
<path fill-rule="nonzero" fill="rgb(100%, 100%, 100%)" fill-opacity="1" d="M 98.417969 582.59375 C 98.417969 582.261719 98.660156 582.039062 99.027344 582.039062 L 100.121094 582.039062 C 107.777344 582.039062 110.332031 577.511719 110.332031 568.667969 L 110.332031 453.632812 C 110.332031 444.792969 107.777344 440.371094 100.121094 440.371094 L 99.027344 440.371094 C 98.660156 440.371094 98.417969 440.148438 98.417969 439.820312 C 98.417969 439.488281 98.660156 439.265625 99.027344 439.265625 L 133.0625 439.265625 C 133.425781 439.265625 133.667969 439.488281 133.667969 439.820312 C 133.667969 440.148438 133.425781 440.371094 133.0625 440.371094 L 131.847656 440.371094 C 124.1875 440.371094 121.636719 444.792969 121.636719 453.632812 L 121.636719 568.667969 C 121.636719 577.511719 124.1875 582.039062 131.847656 582.039062 L 133.0625 582.039062 C 133.425781 582.039062 133.667969 582.261719 133.667969 582.59375 C 133.667969 582.925781 133.425781 583.148438 133.0625 583.148438 L 99.027344 583.148438 C 98.660156 583.148438 98.417969 582.925781 98.417969 582.59375 "/>
<path fill-rule="nonzero" fill="rgb(100%, 100%, 100%)" fill-opacity="1" d="M 509.0625 590.550781 L 509.0625 589.554688 C 509.0625 585.023438 506.632812 583.144531 500.917969 583.144531 L 424.703125 583.144531 C 424.335938 583.144531 424.09375 582.925781 424.09375 582.59375 C 424.09375 582.261719 424.335938 582.042969 424.703125 582.042969 L 425.796875 582.042969 C 433.453125 582.042969 436.007812 577.511719 436.007812 568.671875 L 436.007812 453.632812 C 436.007812 444.792969 433.453125 440.371094 425.796875 440.371094 L 424.703125 440.371094 C 424.335938 440.371094 424.09375 440.148438 424.09375 439.816406 C 424.09375 439.488281 424.335938 439.265625 424.703125 439.265625 L 500.917969 439.265625 C 506.753906 439.265625 508.941406 437.054688 508.941406 433.1875 L 508.820312 430.316406 C 508.820312 429.984375 508.941406 429.761719 509.429688 429.761719 C 509.792969 429.761719 510.035156 429.875 510.035156 430.316406 L 512.585938 472.199219 C 512.585938 472.640625 512.34375 472.75 511.980469 472.75 C 511.617188 472.75 511.371094 472.53125 511.371094 472.199219 C 507.359375 451.972656 499.09375 440.371094 480.011719 440.371094 L 457.886719 440.371094 C 449.863281 440.371094 447.3125 444.792969 447.3125 453.632812 L 447.3125 493.96875 C 447.3125 498.058594 449.378906 498.386719 452.296875 498.386719 L 476.242188 498.386719 C 489.492188 498.386719 497.515625 490.875 497.515625 480.707031 L 497.515625 479.601562 C 497.515625 479.160156 497.757812 479.050781 498.121094 479.050781 C 498.488281 479.050781 498.730469 479.160156 498.730469 479.601562 L 498.730469 518.390625 C 498.730469 518.722656 498.609375 518.941406 498.121094 518.941406 C 497.636719 518.941406 497.515625 518.722656 497.515625 518.390625 L 497.515625 517.285156 C 497.515625 507.117188 489.492188 499.492188 476.242188 499.492188 L 452.296875 499.492188 C 449.378906 499.492188 447.3125 499.605469 447.3125 503.914062 L 447.3125 568.671875 C 447.3125 577.511719 449.863281 582.042969 457.886719 582.042969 L 480.011719 582.042969 C 500.1875 582.042969 508.089844 568.890625 511.492188 548.558594 C 511.492188 548.335938 511.617188 548.117188 512.101562 548.117188 C 512.46875 548.117188 512.710938 548.226562 512.710938 548.667969 L 510.277344 590.550781 C 510.277344 590.992188 510.035156 591.101562 509.671875 591.101562 C 509.183594 591.101562 509.0625 590.882812 509.0625 590.550781 "/>
<path fill-rule="nonzero" fill="rgb(100%, 100%, 100%)" fill-opacity="1" d="M 268.863281 582.042969 L 267.644531 582.042969 C 260.472656 582.042969 257.921875 577.511719 257.921875 568.671875 L 257.921875 453.632812 C 257.921875 444.792969 260.472656 440.371094 267.644531 440.371094 L 268.863281 440.371094 C 269.226562 440.371094 269.46875 440.148438 269.46875 439.816406 C 269.46875 439.488281 269.226562 439.265625 268.863281 439.265625 L 249.332031 439.265625 C 248.964844 439.265625 248.84375 439.488281 248.722656 439.707031 L 248.285156 441.144531 L 248.28125 441.148438 L 209.4375 565.125 L 170.28125 439.707031 C 170.15625 439.488281 170.035156 439.265625 169.671875 439.265625 L 147.425781 439.265625 C 147.0625 439.265625 146.820312 439.488281 146.820312 439.816406 C 146.820312 440.148438 147.0625 440.371094 147.425781 440.371094 L 147.792969 440.371094 C 155.0625 440.371094 159.214844 444.019531 160.722656 451.371094 L 160.722656 567.5625 C 159.144531 575.960938 154.707031 582.042969 146.574219 582.042969 L 146.210938 582.042969 C 145.847656 582.042969 145.605469 582.261719 145.605469 582.59375 C 145.605469 582.925781 145.847656 583.144531 146.210938 583.144531 L 180.492188 583.144531 C 180.855469 583.144531 181.097656 582.925781 181.097656 582.59375 C 181.097656 582.261719 180.855469 582.042969 180.492188 582.042969 L 179.398438 582.042969 C 170.171875 582.042969 165.132812 576.199219 163.367188 567.5625 L 163.367188 456.203125 L 203.949219 584.25 C 204.070312 584.582031 204.195312 584.691406 204.679688 584.691406 C 205.164062 584.691406 205.289062 584.582031 205.410156 584.25 L 246.496094 454.183594 L 246.496094 568.671875 C 246.496094 577.511719 243.941406 582.042969 236.285156 582.042969 L 235.191406 582.042969 C 234.824219 582.042969 234.582031 582.261719 234.582031 582.59375 C 234.582031 582.925781 234.824219 583.144531 235.191406 583.144531 L 268.863281 583.144531 C 269.226562 583.144531 269.46875 582.925781 269.46875 582.59375 C 269.46875 582.261719 269.226562 582.042969 268.863281 582.042969 "/>
<path fill-rule="nonzero" fill="rgb(100%, 100%, 100%)" fill-opacity="1" d="M 408.847656 582.042969 L 407.632812 582.042969 C 400.460938 582.042969 397.90625 577.511719 397.90625 568.671875 L 397.90625 453.632812 C 397.90625 444.792969 400.460938 440.371094 407.632812 440.371094 L 408.847656 440.371094 C 409.210938 440.371094 409.453125 440.148438 409.453125 439.816406 C 409.453125 439.488281 409.210938 439.265625 408.847656 439.265625 L 389.316406 439.265625 C 388.953125 439.265625 388.828125 439.488281 388.710938 439.707031 L 388.273438 441.144531 L 388.265625 441.148438 L 349.425781 565.125 L 310.265625 439.707031 C 310.144531 439.488281 310.023438 439.265625 309.65625 439.265625 L 287.410156 439.265625 C 287.046875 439.265625 286.804688 439.488281 286.804688 439.816406 C 286.804688 440.148438 287.046875 440.371094 287.410156 440.371094 L 287.777344 440.371094 C 295.046875 440.371094 299.199219 444.019531 300.710938 451.371094 L 300.710938 567.5625 C 299.132812 575.960938 294.691406 582.042969 286.5625 582.042969 L 286.195312 582.042969 C 285.832031 582.042969 285.589844 582.261719 285.589844 582.59375 C 285.589844 582.925781 285.832031 583.144531 286.195312 583.144531 L 320.476562 583.144531 C 320.839844 583.144531 321.082031 582.925781 321.082031 582.59375 C 321.082031 582.261719 320.839844 582.042969 320.476562 582.042969 L 319.382812 582.042969 C 310.160156 582.042969 305.117188 576.199219 303.351562 567.5625 L 303.351562 456.203125 L 343.9375 584.25 C 344.058594 584.582031 344.179688 584.691406 344.664062 584.691406 C 345.152344 584.691406 345.273438 584.582031 345.394531 584.25 L 386.480469 454.183594 L 386.480469 568.671875 C 386.480469 577.511719 383.929688 582.042969 376.269531 582.042969 L 375.175781 582.042969 C 374.8125 582.042969 374.566406 582.261719 374.566406 582.59375 C 374.566406 582.925781 374.8125 583.144531 375.175781 583.144531 L 408.847656 583.144531 C 409.210938 583.144531 409.453125 582.925781 409.453125 582.59375 C 409.453125 582.261719 409.210938 582.042969 408.847656 582.042969 "/>
<path fill-rule="nonzero" fill="rgb(100%, 100%, 100%)" fill-opacity="1" d="M 919.023438 510.378906 L 865.453125 510.378906 C 864.4375 510.167969 863.746094 509.703125 863.746094 508.664062 C 863.746094 507.890625 863.867188 507.117188 864.476562 505.792969 L 891.09375 450.207031 L 919.660156 505.570312 C 920.390625 506.898438 920.753906 508.003906 920.753906 508.664062 C 920.753906 509.738281 920.050781 510.179688 919.023438 510.378906 M 982.628906 582.042969 L 982.261719 582.042969 C 975.578125 582.042969 969.742188 577.066406 964.636719 567.453125 L 897.171875 438.160156 C 897.050781 437.941406 896.832031 437.71875 895.929688 437.71875 C 894.9375 437.71875 894.683594 437.914062 894.5625 438.132812 L 831.921875 569.144531 C 825.886719 578.195312 820.328125 582.042969 816.21875 582.042969 L 815.609375 582.042969 C 815.246094 582.042969 815 582.261719 815 582.59375 C 815 582.925781 815.246094 583.144531 815.609375 583.144531 L 851.589844 583.144531 C 851.953125 583.144531 852.199219 582.925781 852.199219 582.59375 C 852.199219 582.261719 851.953125 582.042969 851.589844 582.042969 L 850.007812 582.042969 C 843.324219 582.042969 837.367188 578.726562 837.367188 569.773438 C 837.367188 565.464844 838.828125 559.828125 842.230469 552.644531 L 859.125 517.0625 C 860.722656 513.675781 862.578125 512.0625 865.53125 511.695312 L 919.453125 511.695312 C 921.6875 512.078125 923.703125 513.300781 925.496094 516.730469 L 952.605469 569.113281 C 954.425781 572.648438 955.277344 575.300781 955.277344 577.289062 C 955.277344 580.605469 952.847656 582.042969 948.347656 582.042969 L 947.742188 582.042969 C 947.375 582.042969 947.132812 582.261719 947.132812 582.59375 C 947.132812 582.925781 947.375 583.144531 947.742188 583.144531 L 982.628906 583.144531 C 982.992188 583.144531 983.234375 582.925781 983.234375 582.59375 C 983.234375 582.261719 982.992188 582.042969 982.628906 582.042969 "/>
<path fill-rule="nonzero" fill="rgb(100%, 100%, 100%)" fill-opacity="1" d="M 124.960938 405.371094 L 130.433594 406.3125 L 126.21875 403.335938 L 155.742188 400.355469 L 126.195312 397.371094 L 130.320312 394.441406 L 124.949219 395.351562 L 131.640625 384.757812 L 121.0625 391.4375 L 122.003906 385.964844 L 119.027344 390.179688 L 116.046875 360.65625 L 113.058594 390.203125 L 110.132812 386.078125 L 111.039062 391.445312 L 100.449219 384.757812 L 107.128906 395.335938 L 101.65625 394.394531 L 105.871094 397.371094 L 76.347656 400.355469 L 105.894531 403.339844 L 101.769531 406.265625 L 107.136719 405.355469 L 100.449219 415.949219 L 111.027344 409.269531 L 110.085938 414.742188 L 113.0625 410.527344 L 116.046875 440.050781 L 119.027344 410.503906 L 121.957031 414.628906 L 121.046875 409.261719 L 131.640625 415.949219 Z M 124.960938 405.371094 "/>
<path fill-rule="nonzero" fill="rgb(100%, 100%, 100%)" fill-opacity="1" d="M 803.683594 405.371094 L 809.15625 406.3125 L 804.941406 403.335938 L 834.464844 400.355469 L 804.917969 397.371094 L 809.042969 394.441406 L 803.675781 395.351562 L 810.363281 384.757812 L 799.785156 391.4375 L 800.726562 385.964844 L 797.75 390.179688 L 794.769531 360.65625 L 791.785156 390.203125 L 788.855469 386.078125 L 789.765625 391.445312 L 779.171875 384.757812 L 785.851562 395.335938 L 780.378906 394.394531 L 784.59375 397.371094 L 755.070312 400.355469 L 784.617188 403.339844 L 780.492188 406.265625 L 785.863281 405.355469 L 779.171875 415.949219 L 789.75 409.269531 L 788.808594 414.742188 L 791.785156 410.527344 L 794.769531 440.050781 L 797.753906 410.503906 L 800.679688 414.628906 L 799.773438 409.261719 L 810.363281 415.949219 Z M 803.683594 405.371094 "/>
<path fill-rule="nonzero" fill="rgb(100%, 100%, 100%)" fill-opacity="1" d="M 172.355469 400.601562 L 172.363281 400.617188 C 172.375 400.617188 172.390625 400.613281 172.414062 400.609375 C 173.550781 400.785156 177.734375 400.84375 193.15625 400.96875 C 203.445312 401.054688 214.046875 401.109375 214.238281 401.109375 L 695.96875 401.109375 C 696.160156 401.109375 706.761719 401.054688 717.050781 400.96875 C 732.472656 400.84375 736.65625 400.785156 737.792969 400.609375 C 737.8125 400.613281 737.832031 400.617188 737.847656 400.617188 L 737.851562 400.601562 C 738.214844 400.535156 738.214844 400.457031 738.214844 400.351562 C 738.214844 400.25 738.214844 400.167969 737.851562 400.105469 L 737.847656 400.089844 C 737.832031 400.089844 737.8125 400.09375 737.792969 400.09375 C 736.65625 399.921875 732.472656 399.863281 717.050781 399.738281 C 706.761719 399.652344 696.160156 399.597656 695.96875 399.597656 L 214.238281 399.597656 C 214.046875 399.597656 203.445312 399.652344 193.15625 399.738281 C 177.734375 399.863281 173.550781 399.921875 172.414062 400.09375 C 172.390625 400.09375 172.375 400.089844 172.363281 400.089844 L 172.351562 400.105469 C 171.992188 400.171875 171.992188 400.25 171.992188 400.351562 C 171.992188 400.457031 171.992188 400.535156 172.355469 400.601562 "/>
<path fill-rule="nonzero" fill="rgb(100%, 100%, 100%)" fill-opacity="1" d="M 851.304688 400.601562 L 851.308594 400.617188 C 851.320312 400.617188 851.339844 400.613281 851.363281 400.609375 C 852.496094 400.785156 856.679688 400.84375 872.105469 400.96875 C 882.390625 401.054688 892.992188 401.109375 893.183594 401.109375 L 941.273438 401.109375 C 941.464844 401.109375 952.066406 401.054688 962.355469 400.96875 C 977.777344 400.84375 981.960938 400.785156 983.097656 400.609375 C 983.117188 400.613281 983.136719 400.617188 983.152344 400.617188 L 983.15625 400.601562 C 983.519531 400.535156 983.519531 400.457031 983.519531 400.351562 C 983.519531 400.25 983.519531 400.167969 983.15625 400.105469 L 983.152344 400.089844 C 983.136719 400.089844 983.117188 400.09375 983.097656 400.09375 C 981.960938 399.921875 977.777344 399.863281 962.355469 399.738281 C 952.066406 399.652344 941.464844 399.597656 941.273438 399.597656 L 893.183594 399.597656 C 892.992188 399.597656 882.390625 399.652344 872.105469 399.738281 C 856.679688 399.863281 852.496094 399.921875 851.363281 400.09375 C 851.339844 400.09375 851.320312 400.089844 851.308594 400.089844 L 851.304688 400.105469 C 850.9375 400.171875 850.9375 400.25 850.9375 400.351562 C 850.9375 400.457031 850.9375 400.535156 851.304688 400.601562 "/>
<path fill-rule="nonzero" fill="rgb(100%, 100%, 100%)" fill-opacity="1" d="M 983.15625 618.878906 L 983.152344 618.859375 C 983.136719 618.859375 983.117188 618.867188 983.09375 618.867188 C 981.960938 618.691406 977.777344 618.636719 962.351562 618.511719 C 952.066406 618.425781 941.464844 618.371094 941.273438 618.371094 L 105.078125 618.371094 C 104.890625 618.371094 94.285156 618.425781 84 618.511719 C 68.574219 618.636719 64.390625 618.691406 63.257812 618.867188 C 63.234375 618.867188 63.214844 618.859375 63.203125 618.859375 L 63.195312 618.878906 C 62.832031 618.941406 62.832031 619.023438 62.832031 619.125 C 62.832031 619.226562 62.832031 619.308594 63.199219 619.371094 L 63.203125 619.390625 C 63.214844 619.386719 63.234375 619.386719 63.257812 619.382812 C 64.390625 619.558594 68.574219 619.617188 84 619.742188 C 94.285156 619.824219 104.890625 619.878906 105.078125 619.878906 L 941.273438 619.878906 C 941.464844 619.878906 952.066406 619.824219 962.351562 619.742188 C 977.777344 619.617188 981.960938 619.558594 983.09375 619.382812 C 983.117188 619.386719 983.136719 619.386719 983.152344 619.390625 L 983.15625 619.371094 C 983.519531 619.308594 983.519531 619.226562 983.519531 619.125 C 983.519531 619.023438 983.519531 618.941406 983.15625 618.878906 "/>
<path fill-rule="nonzero" fill="rgb(100%, 100%, 100%)" fill-opacity="1" d="M 724.773438 642.738281 C 726.394531 642.738281 728.632812 640.136719 728.632812 637.082031 C 728.632812 633.796875 726.394531 631.308594 723.28125 629.953125 C 722.289062 632.78125 721.664062 635.609375 721.664062 637.871094 C 721.664062 640.703125 722.535156 642.738281 724.773438 642.738281 M 722.289062 662.992188 C 722.289062 661.632812 719.175781 660.390625 710.460938 660.390625 C 706.226562 660.390625 702.617188 661.292969 699.625 662.878906 C 702.492188 665.253906 706.472656 666.726562 711.828125 666.726562 C 717.058594 666.726562 722.289062 664.800781 722.289062 662.992188 M 771.085938 691.734375 L 773.453125 692.296875 C 772.332031 694.5625 771.085938 696.9375 769.34375 699.203125 C 758.140625 714.136719 742.078125 719.226562 727.515625 719.226562 C 697.511719 719.226562 682.324219 700.445312 682.324219 683.925781 C 682.324219 675.328125 686.433594 667.292969 694.648438 662.765625 C 690.914062 659.257812 689.046875 654.503906 689.046875 649.527344 C 689.046875 638.550781 698.257812 626.894531 714.816406 626.894531 C 717.308594 626.894531 719.796875 627.234375 722.035156 627.914062 C 723.15625 625.199219 724.402344 622.824219 726.019531 620.785156 C 726.519531 620.105469 727.015625 619.878906 727.390625 619.878906 C 727.765625 619.878906 727.886719 620.105469 727.886719 620.449219 C 727.886719 620.671875 727.765625 621.011719 727.515625 621.464844 C 726.019531 623.5 724.773438 625.878906 723.777344 628.367188 C 728.386719 630.066406 731.621094 633.34375 731.621094 637.871094 C 731.621094 642.171875 728.261719 646.246094 725.023438 646.246094 C 721.289062 646.246094 719.796875 642.964844 719.796875 638.664062 C 719.796875 635.835938 720.417969 632.554688 721.539062 629.273438 C 719.796875 628.820312 717.929688 628.480469 715.9375 628.480469 C 701.746094 628.480469 693.902344 639.683594 693.902344 649.980469 C 693.902344 654.167969 695.148438 658.242188 697.882812 661.292969 C 701.617188 659.824219 706.101562 658.917969 711.328125 658.917969 C 720.792969 658.917969 724.652344 660.957031 724.652344 663.21875 C 724.652344 665.707031 719.671875 668.421875 711.828125 668.421875 C 705.605469 668.421875 700.625 666.953125 697.015625 664.578125 C 691.660156 668.761719 689.046875 675.4375 689.046875 682.679688 C 689.046875 698.75 701.996094 717.53125 728.136719 717.53125 C 746.3125 717.53125 759.753906 708.59375 766.855469 698.863281 C 768.472656 696.597656 769.839844 694.109375 771.085938 691.734375 "/>
<path fill-rule="nonzero" fill="rgb(100%, 100%, 100%)" fill-opacity="1" d="M 828.464844 698.070312 C 838.546875 694.675781 842.777344 688.792969 842.777344 684.265625 C 842.777344 680.871094 840.414062 678.265625 836.308594 678.265625 C 830.453125 678.265625 827.59375 684.265625 827.59375 691.167969 C 827.59375 693.429688 827.964844 695.804688 828.464844 698.070312 M 801.820312 699.203125 C 802.195312 697.390625 802.445312 695.804688 802.445312 694.222656 C 802.445312 690.601562 799.953125 687.773438 798.335938 687.773438 C 797.464844 687.773438 796.84375 688.566406 796.84375 690.375 C 796.84375 693.089844 797.839844 696.9375 801.820312 699.203125 M 823.484375 699.425781 C 823.109375 697.617188 822.988281 695.691406 822.988281 693.882812 C 822.988281 684.71875 827.84375 676.117188 837.300781 676.117188 C 843.15625 676.117188 846.140625 679.175781 846.140625 683.246094 C 846.140625 688.792969 840.539062 696.035156 829.089844 700.21875 C 831.453125 707.007812 836.433594 712.667969 844.148438 712.667969 C 851.621094 712.667969 861.203125 707.574219 868.300781 698.863281 C 870.042969 696.710938 871.289062 694.109375 872.535156 691.730469 L 874.898438 692.296875 C 873.78125 694.5625 872.535156 696.9375 870.792969 699.203125 C 862.699219 709.726562 851.992188 716.058594 842.53125 716.058594 C 832.570312 716.058594 826.472656 709.5 824.105469 701.691406 C 819.5 702.824219 814.148438 703.5 807.921875 703.5 C 806.304688 703.5 804.933594 703.386719 803.691406 703.046875 C 800.203125 710.96875 793.105469 718.4375 785.019531 718.4375 C 776.550781 718.4375 774.433594 698.519531 774.433594 688.226562 C 774.433594 686.1875 775.304688 686.074219 777.421875 686.074219 C 779.289062 686.074219 779.414062 687.886719 779.414062 688.339844 C 779.535156 696.488281 779.914062 715.496094 786.511719 715.496094 C 793.230469 715.496094 798.464844 708.707031 800.953125 701.917969 C 796.34375 699.425781 794.351562 694.5625 794.351562 691.167969 C 794.351562 686.300781 796.59375 684.265625 799.085938 684.265625 C 802.320312 684.265625 806.054688 687.660156 806.054688 692.867188 C 806.054688 695.128906 805.558594 697.730469 804.683594 700.332031 C 805.929688 700.671875 807.300781 700.785156 808.917969 700.785156 C 814.519531 700.785156 819.375 700.332031 823.484375 699.425781 "/>
<path fill-rule="nonzero" fill="rgb(100%, 100%, 100%)" fill-opacity="1" d="M 880.609375 687.546875 C 881.355469 709.609375 881.355469 714.25 881.480469 714.25 C 882.105469 714.25 895.796875 691.734375 896.792969 690.148438 C 899.160156 686.300781 900.53125 685.28125 901.648438 685.28125 C 903.636719 685.28125 903.890625 687.207031 903.890625 689.582031 C 903.890625 690.714844 903.890625 691.960938 903.765625 693.316406 C 903.765625 707.007812 909.367188 713.003906 916.089844 713.003906 C 922.4375 713.003906 930.03125 708.027344 936.878906 698.863281 C 938.5 696.597656 939.867188 694.109375 941.109375 691.734375 L 943.476562 692.296875 C 942.355469 694.5625 940.988281 696.9375 939.367188 699.203125 C 931.152344 710.628906 921.941406 716.175781 914.472656 716.175781 C 906.503906 716.175781 900.152344 712.101562 900.152344 692.1875 C 900.152344 691.621094 900.152344 691.054688 899.78125 691.054688 C 897.539062 691.054688 882.726562 715.949219 880.980469 717.644531 C 880.484375 718.097656 879.988281 718.324219 879.488281 718.324219 C 877.992188 718.324219 876.625 716.851562 876.625 716.0625 C 876.625 715.042969 876.375 695.242188 876.375 691.734375 C 876.375 690.714844 875.503906 689.355469 875.503906 688.226562 C 875.503906 687.433594 876.875 685.171875 878.867188 685.171875 C 878.867188 685.171875 880.609375 685.507812 880.609375 687.546875 "/>
<path fill-rule="nonzero" fill="rgb(100%, 100%, 100%)" fill-opacity="1" d="M 945.335938 656.996094 C 950.316406 656.882812 955.296875 656.882812 960.273438 656.882812 C 960.648438 653.714844 960.894531 650.773438 960.894531 647.945312 C 960.894531 639.570312 959.03125 633.34375 954.671875 633.34375 C 949.316406 633.34375 946.203125 643.757812 945.335938 656.996094 M 947.449219 690.714844 C 953.179688 685.285156 958.136719 671.714844 960.125 659.949219 L 945.085938 659.949219 C 944.960938 661.304688 945.085938 663.898438 945.085938 665.253906 C 945.085938 673.742188 945.832031 682.792969 947.449219 690.714844 M 940.605469 656.996094 C 942.472656 642.511719 947.574219 631.082031 955.917969 631.082031 C 961.894531 631.082031 964.257812 637.417969 964.257812 646.132812 C 964.257812 649.414062 963.886719 653.148438 963.265625 656.882812 C 973.484375 657.511719 979.6875 657.210938 985.285156 657.355469 C 987.03125 657.398438 992.734375 657.183594 992.734375 658.769531 C 992.734375 659.671875 987.527344 659.949219 985.285156 659.949219 L 962.71875 659.949219 C 959.976562 672.730469 954.171875 686.980469 947.949219 692.976562 C 950.8125 705.085938 955.667969 714.136719 962.640625 714.136719 C 969.859375 714.136719 980.445312 707.914062 988.90625 691.730469 L 991.273438 692.296875 C 982.558594 709.835938 968.863281 716.964844 960.648438 716.964844 C 946.828125 716.964844 939.859375 692.523438 939.859375 669.78125 C 939.859375 666.953125 939.996094 662.585938 940.242188 659.867188 C 922.070312 660.09375 915.710938 660.183594 912.347656 660.183594 C 910.855469 660.183594 908.859375 660.550781 908.859375 659.082031 C 908.859375 658.0625 909.730469 657.789062 912.96875 657.558594 C 917.449219 657.335938 928.28125 657.105469 940.605469 656.996094 "/>
<path fill-rule="nonzero" fill="rgb(100%, 100%, 100%)" fill-opacity="1" d="M 1008.441406 683.246094 C 1004.832031 683.246094 990.265625 686.527344 990.265625 689.46875 C 990.265625 690.375 991.761719 691.054688 994.003906 691.621094 C 999.730469 687.433594 1009.0625 684.152344 1009.0625 683.359375 C 1009.0625 683.246094 1008.816406 683.246094 1008.441406 683.246094 M 1013.546875 713.457031 C 1013.546875 713.570312 1013.671875 713.683594 1014.171875 713.683594 C 1016.910156 713.683594 1031.226562 709.382812 1038.695312 698.636719 C 1040.191406 696.371094 1041.558594 693.996094 1042.800781 691.734375 L 1045.167969 692.296875 C 1044.046875 694.5625 1042.800781 696.9375 1041.183594 699.089844 C 1031.097656 712.554688 1010.683594 719.34375 996.863281 719.34375 C 995.246094 719.34375 994.253906 719.230469 994.253906 718.4375 C 994.253906 717.757812 995.371094 717.304688 996.117188 717.304688 C 1004.957031 716.625 1018.15625 710.402344 1018.15625 705.425781 C 1018.15625 696.710938 985.285156 698.863281 985.285156 691.054688 C 985.285156 686.074219 1002.964844 680.078125 1010.308594 680.078125 C 1014.046875 680.078125 1015.414062 680.53125 1015.414062 681.210938 C 1015.414062 683.359375 1002.46875 688.113281 996.242188 692.1875 C 1005.703125 694.335938 1022.636719 696.484375 1022.636719 703.613281 C 1022.636719 708.253906 1013.546875 713.457031 1013.546875 713.457031 "/>
</svg>
